<svg xmlns="http://www.w3.org/2000/svg" width="217.01" height="206.76" viewBox="0 0 217.01 206.76">
  <g id="_ƒŒƒCƒ__1" transform="translate(0.01)">
    <g id="Group_3" data-name="Group 3">
      <path id="Path_1" data-name="Path 1" d="M133.02,87.54v20.85c-2.42,4.41-22.77,13.44-24.52,18.79-1.73-5.35-22.08-14.38-24.52-18.79V87.54h49.03Z" fill="#1f201f"/>
      <path id="Path_2" data-name="Path 2" d="M76.52,128.48l7.47-20.08c-3.13,2.98-3.93,6.46-5.21,10.35-12.85,5.39-52.11,21.71-56.06,22.7s-6.67,2.6-7.74,6.57S2.38,177.22-.01,206.76H68.13l8.39-78.28Z" fill="#1f201f"/>
      <path id="Path_3" data-name="Path 3" d="M140.47,128.48,133,108.4c3.13,2.98,3.93,6.46,5.21,10.35,12.85,5.39,52.11,21.71,56.06,22.7s6.67,2.6,7.74,6.57,12.6,29.2,14.99,58.74H148.87l-8.39-78.28Z" fill="#1f201f"/>
      <path id="Path_4" data-name="Path 4" d="M119.48,168.4c-.95-6.6-2.5-18.57-6.02-22.13h-9.93c-3.51,3.56-5.08,15.53-6.03,22.13a304.447,304.447,0,0,0-2.71,38.36h27.39a304.447,304.447,0,0,0-2.71-38.36Z" fill="#1f201f"/>
      <path id="Path_5" data-name="Path 5" d="M121.76,129.09c-1.46-2.32-11.63-3.26-13.26-1.91-1.35-1.46-11.79-.41-13.25,1.91-2.6,4.11,7.43,8.89,7.69,18.51a7.241,7.241,0,0,0,5.57,1.93,7.241,7.241,0,0,0,5.57-1.93c.26-9.62,10.29-14.39,7.69-18.51Z" fill="#1f201f"/>
      <path id="Path_6" data-name="Path 6" d="M57.69,136.53l7.5,7.36L54.57,155.11c-.15,5.87,11.14,44.5,13.57,51.65H80.92c-3.75-21.67-4.88-82.62,3.09-98.37-2.19,1.58-5.44,7.61-6.27,10.8L57.71,136.52Z" fill="#1f201f"/>
      <path id="Path_7" data-name="Path 7" d="M159.31,136.53l-7.5,7.36,10.62,11.22c.15,5.87-11.14,44.5-13.57,51.65H136.08c3.75-21.67,4.88-82.62-3.09-98.37,2.19,1.58,5.44,7.61,6.27,10.8l20.03,17.33Z" fill="#1f201f"/>
      <g id="Group_2" data-name="Group 2">
        <path id="Path_8" data-name="Path 8" d="M133.08,94.47c-7.19,7.8-11.25,12.89-24.58,12.89s-17.37-5.08-24.58-12.89c-5.23-5.66-7.62-24.46-7.05-40.16A76.322,76.322,0,0,1,78.8,38.74c3.93-15.19,13.95-17.59,29.7-17.59s25.77,2.4,29.7,17.59a76.321,76.321,0,0,1,1.93,15.57c.58,15.7-1.82,34.5-7.05,40.16Z" fill="#1f201f"/>
        <path id="Path_9" data-name="Path 9" d="M78.99,58.37c-4.94-5.84-9.31-1.32-9.39,4.42-.08,6.07,2.34,15.66,10.74,19.1S78.99,58.37,78.99,58.37Z" fill="#1f201f"/>
        <path id="Path_10" data-name="Path 10" d="M138.01,58.37c4.94-5.84,9.31-1.32,9.39,4.42.08,6.07-2.34,15.66-10.74,19.1S138.01,58.37,138.01,58.37Z" fill="#1f201f"/>
        <path id="Path_11" data-name="Path 11" d="M136.56,21.55C132.16,7.73,119.47,5.26,108.5,5.26S84.84,7.73,80.44,21.55c-7.28,8.36-7.17,29.87-3.34,36.7.22-5.93.61-13.09,1.7-17.25,3.93-15.19,13.95-17.59,29.7-17.59s25.77,2.4,29.7,17.59c1.08,4.16,1.48,11.32,1.69,17.25C143.72,51.43,143.84,29.92,136.56,21.55Z" fill="#1f201f"/>
        <g id="Group_1" data-name="Group 1">
          <path id="Path_12" data-name="Path 12" d="M105.36,13.12c-2.72-2.2,3.82-7.37,2.94-11.56,2.41,3.24.72,8.13,2.03,8.99s-3.35,3.88-4.98,2.57Z" fill="#1f201f"/>
          <path id="Path_13" data-name="Path 13" d="M77.25,31.55c-2.85-2.79-.39-13,1.31-16.92.39,4.57,2.94,9.59,4.31,10.68s-3.92,7.91-5.62,6.24Z" fill="#1f201f"/>
          <path id="Path_14" data-name="Path 14" d="M80.85,22.82C78,20.55,82.48,16,81.56,11.67c2.53,3.34,3.13,7.61,4.5,8.5S82.55,24.17,80.85,22.82Z" fill="#1f201f"/>
          <path id="Path_15" data-name="Path 15" d="M91.5,15.7c-3.19-1.77.49-7-1.13-11.11,3.04,2.88,4.34,6.99,5.84,7.64S93.4,16.75,91.5,15.7Z" fill="#1f201f"/>
          <path id="Path_16" data-name="Path 16" d="M79.23,22.55c-3.39-1.87.65-6.38.85-9.19,1.72,4,3.72,6.27,5.36,7.01s-4.18,3.3-6.2,2.18Z" fill="#1f201f"/>
          <path id="Path_17" data-name="Path 17" d="M89.33,16.13c-3.39-1.87.52-5.62.15-10.11,1.72,4,4.42,7.19,6.06,7.92s-4.18,3.3-6.2,2.18Z" fill="#1f201f"/>
          <path id="Path_18" data-name="Path 18" d="M94.69,12.08c-1.91-1.87.37-6.38.48-9.19.97,4,2.1,6.27,3.02,7.01s-2.35,3.3-3.49,2.18Z" fill="#1f201f"/>
          <path id="Path_19" data-name="Path 19" d="M101.34,13.97c-3.39-1.87-.65-9.12-.46-11.93,1.72,4,1.45,8.91,3.08,9.64S103.36,15.08,101.34,13.97Z" fill="#1f201f"/>
          <path id="Path_20" data-name="Path 20" d="M83.26,20.16c-2.85-2.27.33-8.78,2.02-11.97.39,3.71,7.05,7.09,8.43,7.98S84.96,21.51,83.26,20.16Z" fill="#1f201f"/>
          <path id="Path_21" data-name="Path 21" d="M86.86,17.16c-2.85-2.27-.58-9.65,1.11-12.83.39,3.71,2.86,9.9,4.23,10.79S88.56,18.52,86.86,17.16Z" fill="#1f201f"/>
          <path id="Path_22" data-name="Path 22" d="M98.81,15.53c-2.85-2.27-.84-9.46.86-12.64.39,3.71,3.11,9.71,4.48,10.6S100.51,16.89,98.81,15.53Z" fill="#1f201f"/>
          <path id="Path_23" data-name="Path 23" d="M96.39,12.73c-2.85-2.27.33-8.78,2.02-11.97.39,3.71.47,10.88,1.85,11.76s-2.17,1.55-3.87.2Z" fill="#1f201f"/>
          <path id="Path_24" data-name="Path 24" d="M105.32,12.13c-2.85-2.27.33-8.78,2.02-11.97.39,3.71,1.95,9.03,3.32,9.92s-3.64,3.4-5.34,2.04Z" fill="#1f201f"/>
          <path id="Path_25" data-name="Path 25" d="M93.77,15.7c-4.45-1.56-3.02-10.6-1.12-14.14.56,8.17,6.32,10.3,8.43,10.85S96.42,16.63,93.77,15.7Z" fill="#1f201f"/>
          <path id="Path_26" data-name="Path 26" d="M108.27,9.93s-4.24-8.68-6.2-9.93c1.68,5.36-3.59,11.7-.74,13.97,1.7,1.35,8.31-3.15,6.93-4.04Z" fill="#1f201f"/>
          <path id="Path_27" data-name="Path 27" d="M139.73,31.55c2.85-2.79.39-13-1.31-16.92-.39,4.57-2.94,9.59-4.31,10.68S138.03,33.22,139.73,31.55Z" fill="#1f201f"/>
          <path id="Path_28" data-name="Path 28" d="M136.14,22.82c2.85-2.27-1.09-9.69-.17-14.01-2.53,3.34-3.67,10.48-5.04,11.36s3.51,4,5.21,2.65Z" fill="#1f201f"/>
          <path id="Path_29" data-name="Path 29" d="M126.3,15.92c2.85-2.27-1.63-6.82-.71-11.15-2.53,3.34-3.13,7.61-4.5,8.5S124.6,17.27,126.3,15.92Z" fill="#1f201f"/>
          <path id="Path_30" data-name="Path 30" d="M137.75,22.55c3.39-1.87-.65-6.38-.85-9.19-1.72,4-3.72,6.27-5.36,7.01s4.18,3.3,6.2,2.18Z" fill="#1f201f"/>
          <path id="Path_31" data-name="Path 31" d="M127.65,16.13c3.39-1.87-.65-6.38-.85-9.19-1.72,4-3.72,6.27-5.36,7.01s4.18,3.3,6.2,2.18Z" fill="#1f201f"/>
          <path id="Path_32" data-name="Path 32" d="M115.96,11.92c3.39-1.87-.65-6.38-.85-9.19-1.72,4-.47,8.22-2.1,8.95S113.93,13.03,115.96,11.92Z" fill="#1f201f"/>
          <path id="Path_33" data-name="Path 33" d="M133.72,20.16c2.85-2.27-.33-8.78-2.02-11.97-.39,3.71-7.05,7.09-8.43,7.98S132.02,21.51,133.72,20.16Z" fill="#1f201f"/>
          <path id="Path_34" data-name="Path 34" d="M130.12,17.16c2.85-2.27-.33-8.78-2.02-11.97-.39,3.71-1.95,9.03-3.32,9.92s3.64,3.4,5.34,2.04Z" fill="#1f201f"/>
          <path id="Path_35" data-name="Path 35" d="M118.17,15.53c2.85-2.27-.33-8.78-2.02-11.97-.39,3.71-1.95,9.03-3.32,9.92s3.64,3.4,5.34,2.04Z" fill="#1f201f"/>
          <path id="Path_36" data-name="Path 36" d="M120.59,12.73c2.85-2.27-.33-8.78-2.02-11.97-.39,3.71-1.95,9.03-3.32,9.92s3.64,3.4,5.34,2.04Z" fill="#1f201f"/>
          <path id="Path_37" data-name="Path 37" d="M111.67,12.13c2.85-2.27-.33-8.78-2.02-11.97-.39,3.71-1.95,9.03-3.32,9.92s3.64,3.4,5.34,2.04Z" fill="#1f201f"/>
          <path id="Path_38" data-name="Path 38" d="M124.05,16.3c4.14-2.27-.47-8.78-2.94-11.97-.57,3.71-2.83,9.03-4.82,9.92s5.29,3.4,7.75,2.04Z" fill="#1f201f"/>
          <path id="Path_39" data-name="Path 39" d="M108.71,9.93s3.13-5.95,5.09-7.2c-.69,2.47,3.68,8.13.83,10.4-1.7,1.35-7.29-2.31-5.92-3.19Z" fill="#1f201f"/>
        </g>
      </g>
    </g>
  </g>
</svg>
